<svg fill="none" height="42" viewBox="0 0 360 42" width="360" xmlns="http://www.w3.org/2000/svg">
    <rect height="41" rx="20.5" stroke="#EDEDED" width="359" x="0.5" y="0.5" />
    <g clip-path="url(#clip0_1821_8285)">
        <path
            d="M116.5 21.2297C116.5 20.5499 116.444 19.8665 116.324 19.1978H106.701V23.0486H112.211C111.983 24.2905 111.248 25.3892 110.172 26.0873V28.586H113.46C115.39 26.8443 116.5 24.2722 116.5 21.2297Z"
            fill="#4285F4" />
        <path
            d="M106.701 31.0003C109.452 31.0003 111.773 30.1147 113.463 28.5862L110.176 26.0875C109.261 26.6975 108.08 27.0429 106.704 27.0429C104.043 27.0429 101.786 25.2828 100.976 22.9165H97.5834V25.4923C99.3154 28.8691 102.843 31.0003 106.701 31.0003Z"
            fill="#34A853" />
        <path
            d="M100.972 22.9163C100.545 21.6743 100.545 20.3295 100.972 19.0875V16.5117H97.5834C96.1363 19.3374 96.1363 22.6664 97.5834 25.4921L100.972 22.9163Z"
            fill="#FBBC04" />
        <path
            d="M106.701 14.9576C108.155 14.9355 109.561 15.472 110.614 16.4567L113.527 13.6017C111.683 11.9041 109.235 10.9708 106.701 11.0002C102.843 11.0002 99.3154 13.1314 97.5834 16.5119L100.972 19.0876C101.778 16.7176 104.039 14.9576 106.701 14.9576Z"
            fill="#EA4335" />
    </g>
    <path
        d="M147.196 18.7129C147.101 17.79 146.294 17.2637 145.159 17.2637C143.949 17.2637 143.184 17.8857 143.177 18.7266C143.177 19.6631 144.195 20.0322 144.981 20.2168L145.938 20.4766C147.203 20.7842 148.789 21.4746 148.796 23.2656C148.789 24.9404 147.456 26.1641 145.118 26.1641C142.903 26.1641 141.509 25.0566 141.413 23.252H142.917C143.006 24.332 143.963 24.8447 145.118 24.8516C146.383 24.8447 147.299 24.209 147.306 23.2383C147.299 22.377 146.479 22.0283 145.433 21.748L144.257 21.4336C142.664 20.9961 141.68 20.1895 141.673 18.8086C141.68 17.0996 143.197 15.9648 145.2 15.9648C147.21 15.9648 148.611 17.1133 148.659 18.7129H147.196ZM150.286 26V18.5762H151.749V26H150.286ZM150.095 16.5664C150.102 16.0879 150.519 15.7051 151.024 15.7051C151.523 15.7051 151.94 16.0879 151.94 16.5664C151.94 17.0449 151.523 17.4346 151.024 17.4277C150.519 17.4346 150.102 17.0449 150.095 16.5664ZM156.644 28.9395C154.771 28.9395 153.533 28.1123 153.403 26.7246H154.894C155.037 27.4287 155.693 27.7705 156.657 27.7637C157.819 27.7705 158.551 27.2646 158.558 26.1094V24.6465H158.462C158.202 25.125 157.669 25.8906 156.302 25.8906C154.552 25.8906 153.198 24.585 153.198 22.2129C153.198 19.8408 154.531 18.4805 156.315 18.4805C157.696 18.4805 158.202 19.3145 158.476 19.7793H158.571V18.5762H159.993V26.1641C160 28.0713 158.558 28.9395 156.644 28.9395ZM154.688 22.2402C154.682 23.6963 155.352 24.6807 156.63 24.6875C157.874 24.6807 158.571 23.7715 158.571 22.2402C158.571 20.7363 157.888 19.7178 156.63 19.7246C155.338 19.7178 154.682 20.8184 154.688 22.2402ZM163.233 21.5977V26H161.771V18.5762H163.179V19.793H163.261C163.609 18.9932 164.341 18.4805 165.448 18.4805C166.973 18.4805 167.984 19.4443 167.978 21.2832V26H166.528V21.4609C166.521 20.3809 165.94 19.7383 164.956 19.7383C163.951 19.7383 163.233 20.415 163.233 21.5977ZM173.173 26V18.5762H174.636V26H173.173ZM172.981 16.5664C172.988 16.0879 173.405 15.7051 173.911 15.7051C174.41 15.7051 174.827 16.0879 174.827 16.5664C174.827 17.0449 174.41 17.4346 173.911 17.4277C173.405 17.4346 172.988 17.0449 172.981 16.5664ZM177.876 21.5977V26H176.413V18.5762H177.821V19.793H177.903C178.252 18.9932 178.983 18.4805 180.091 18.4805C181.615 18.4805 182.627 19.4443 182.62 21.2832V26H181.171V21.4609C181.164 20.3809 180.583 19.7383 179.599 19.7383C178.594 19.7383 177.876 20.415 177.876 21.5977ZM189.415 26L187.241 18.5762H188.745L190.194 24.0176H190.276L191.726 18.5762H193.229L194.665 23.9902H194.747L196.183 18.5762H197.687L195.513 26H194.022L192.519 20.6543H192.409L190.919 26H189.415ZM198.89 26V18.5762H200.353V26H198.89ZM198.698 16.5664C198.705 16.0879 199.122 15.7051 199.628 15.7051C200.127 15.7051 200.544 16.0879 200.544 16.5664C200.544 17.0449 200.127 17.4346 199.628 17.4277C199.122 17.4346 198.705 17.0449 198.698 16.5664ZM205.603 18.5762V19.7383H204.085V23.8125C204.092 24.6533 204.502 24.8037 204.974 24.8105C205.186 24.8105 205.507 24.79 205.712 24.7695V26.041C205.514 26.0684 205.199 26.0957 204.796 26.0957C203.654 26.0957 202.622 25.4668 202.636 24.1133V19.7383H201.542V18.5762H202.636V16.7988H204.085V18.5762H205.603ZM208.651 21.5977V26H207.188V16.1016H208.624V19.793H208.72C209.068 18.9863 209.766 18.4805 210.921 18.4805C212.445 18.4805 213.464 19.4238 213.464 21.2832V26H212.001V21.4609C212.001 20.3672 211.413 19.7383 210.429 19.7383C209.396 19.7383 208.651 20.415 208.651 21.5977ZM225.454 19.2324C225.085 18.0635 224.189 17.3389 222.884 17.3457C221.216 17.3389 219.938 18.6514 219.931 21.0508C219.938 23.4434 221.202 24.7627 222.952 24.7559C224.531 24.7627 225.577 23.7578 225.604 22.1719H223.171V20.9277H227.067V22.0488C227.067 24.5576 225.345 26.1367 222.938 26.1367C220.259 26.1367 218.44 24.1885 218.44 21.0508C218.44 17.8926 220.313 15.9648 222.87 15.9648C225.01 15.9648 226.664 17.2979 226.999 19.2324H225.454ZM231.825 26.1504C229.72 26.1504 228.346 24.6191 228.353 22.3223C228.346 20.0117 229.72 18.4805 231.825 18.4805C233.917 18.4805 235.284 20.0117 235.284 22.3223C235.284 24.6191 233.917 26.1504 231.825 26.1504ZM229.815 22.3223C229.815 23.7373 230.465 24.9336 231.825 24.9336C233.165 24.9336 233.808 23.7373 233.808 22.3223C233.808 20.9004 233.165 19.6904 231.825 19.6836C230.465 19.6904 229.815 20.9004 229.815 22.3223ZM239.864 26.1504C237.759 26.1504 236.385 24.6191 236.392 22.3223C236.385 20.0117 237.759 18.4805 239.864 18.4805C241.956 18.4805 243.323 20.0117 243.323 22.3223C243.323 24.6191 241.956 26.1504 239.864 26.1504ZM237.854 22.3223C237.854 23.7373 238.504 24.9336 239.864 24.9336C241.204 24.9336 241.847 23.7373 241.847 22.3223C241.847 20.9004 241.204 19.6904 239.864 19.6836C238.504 19.6904 237.854 20.9004 237.854 22.3223ZM247.876 28.9395C246.003 28.9395 244.766 28.1123 244.636 26.7246H246.126C246.27 27.4287 246.926 27.7705 247.89 27.7637C249.052 27.7705 249.783 27.2646 249.79 26.1094V24.6465H249.694C249.435 25.125 248.901 25.8906 247.534 25.8906C245.784 25.8906 244.431 24.585 244.431 22.2129C244.431 19.8408 245.764 18.4805 247.548 18.4805C248.929 18.4805 249.435 19.3145 249.708 19.7793H249.804V18.5762H251.226V26.1641C251.232 28.0713 249.79 28.9395 247.876 28.9395ZM245.921 22.2402C245.914 23.6963 246.584 24.6807 247.862 24.6875C249.106 24.6807 249.804 23.7715 249.804 22.2402C249.804 20.7363 249.12 19.7178 247.862 19.7246C246.57 19.7178 245.914 20.8184 245.921 22.2402ZM254.466 16.1016V26H253.003V16.1016H254.466ZM259.442 26.1504C257.255 26.1504 255.908 24.6396 255.915 22.3359C255.908 20.0527 257.275 18.4805 259.347 18.4805C261.035 18.4805 262.642 19.5264 262.642 22.2129V22.7324H257.364C257.405 24.1475 258.239 24.9473 259.456 24.9473C260.283 24.9473 260.823 24.5918 261.069 24.1406H262.546C262.218 25.3438 261.076 26.1504 259.442 26.1504ZM257.371 21.6387H261.206C261.206 20.5107 260.475 19.6768 259.36 19.6836C258.191 19.6768 257.433 20.5928 257.371 21.6387Z"
        fill="#626262" />
    <defs>
        <clipPath id="clip0_1821_8285">
            <rect fill="white" height="20" transform="translate(96.5 11)" width="20" />
        </clipPath>
    </defs>
</svg>
