<svg width="96" height="96" viewBox="0 0 96 96" fill="none" xmlns="http://www.w3.org/2000/svg">
<rect width="96" height="96" rx="30" fill="#F2F3F5"/>
<path d="M48 25.5C39.3038 25.5 32.25 32.5538 32.25 41.25C32.25 53.0625 48 70.5 48 70.5C48 70.5 63.75 53.0625 63.75 41.25C63.75 32.5538 56.6963 25.5 48 25.5Z" fill="#3B82F6" fill-opacity="0.15"/>
<path d="M48 48C51.7279 48 54.75 44.9779 54.75 41.25C54.75 37.5221 51.7279 34.5 48 34.5C44.2721 34.5 41.25 37.5221 41.25 41.25C41.25 44.9779 44.2721 48 48 48Z" fill="#2196F3"/>
<path d="M44.625 41.25L46.875 43.5L51.375 39" stroke="white" stroke-width="2.25" stroke-linecap="round" stroke-linejoin="round"/>
</svg>
