<svg width="20" height="20" viewBox="0 0 20 20" fill="none" xmlns="http://www.w3.org/2000/svg">
<path d="M16 4H4C2.89543 4 2 4.89543 2 6V14C2 15.1046 2.89543 16 4 16H16C17.1046 16 18 15.1046 18 14V6C18 4.89543 17.1046 4 16 4Z" stroke="white" stroke-width="1.5"/>
<path d="M10 13C11.6569 13 13 11.6569 13 10C13 8.34315 11.6569 7 10 7C8.34315 7 7 8.34315 7 10C7 11.6569 8.34315 13 10 13Z" stroke="white" stroke-width="1.5"/>
<path d="M14.5 7.5C15.0523 7.5 15.5 7.05228 15.5 6.5C15.5 5.94772 15.0523 5.5 14.5 5.5C13.9477 5.5 13.5 5.94772 13.5 6.5C13.5 7.05228 13.9477 7.5 14.5 7.5Z" fill="white"/>
</svg>
