<svg width="20" height="20" viewBox="0 0 20 20" fill="none" xmlns="http://www.w3.org/2000/svg">
<path d="M17 17H3L10 2L17 17ZM10 13.0996C9.50294 13.0996 9.09961 13.5029 9.09961 14C9.09961 14.4971 9.50294 14.9004 10 14.9004H10.0098C10.5068 14.9004 10.9102 14.4971 10.9102 14C10.9102 13.5029 10.5068 13.0996 10.0098 13.0996H10ZM10 7.09961C9.50294 7.09961 9.09961 7.50294 9.09961 8V12C9.09961 12.4971 9.50294 12.9004 10 12.9004C10.4971 12.9004 10.9004 12.4971 10.9004 12V8C10.9004 7.50294 10.4971 7.09961 10 7.09961Z" fill="white"/>
</svg>
