<svg width="20" height="20" viewBox="0 0 20 20" fill="none" xmlns="http://www.w3.org/2000/svg">
<path opacity="0.9" d="M10 4C13.3137 4 16 6.68629 16 10C16 13.3137 13.3137 16 10 16C6.68629 16 4 13.3137 4 10C4 6.68629 6.68629 4 10 4ZM10 12.0996C9.50294 12.0996 9.09961 12.5029 9.09961 13C9.09961 13.4971 9.50294 13.9004 10 13.9004H10.0098C10.5068 13.9004 10.9102 13.4971 10.9102 13C10.9102 12.5029 10.5068 12.0996 10.0098 12.0996H10ZM10 6.09961C9.50294 6.09961 9.09961 6.50294 9.09961 7V11C9.09961 11.4971 9.50294 11.9004 10 11.9004C10.4971 11.9004 10.9004 11.4971 10.9004 11V7C10.9004 6.50294 10.4971 6.09961 10 6.09961Z" fill="white"/>
</svg>
